<svg width="237" height="43" viewBox="0 0 237 43" fill="none" xmlns="http://www.w3.org/2000/svg">
<path d="M43.0909 21.2727C43.0909 33.0205 33.5659 42.5455 21.8181 42.5455C30.629 42.5455 37.7727 35.4017 37.7727 26.5909C37.7727 17.7801 30.629 10.6364 21.8181 10.6364C13.0073 10.6364 5.86359 17.7801 5.86359 26.5909C5.86359 35.4017 13.0073 42.5455 21.8181 42.5455C10.0704 42.5455 0.54541 33.0205 0.54541 21.2727C0.54541 9.52495 10.0704 0 21.8181 0C33.5659 0 43.0909 9.52495 43.0909 21.2727ZM21.8181 21.2727C15.9442 21.2727 11.1818 26.0352 11.1818 31.9091C11.1818 37.4168 15.3834 41.8936 20.7457 42.4364C18.3229 41.9404 16.5 39.7981 16.5 37.2273C16.5 34.2903 18.8812 31.9091 21.8181 31.9091C24.7551 31.9091 27.1363 34.2903 27.1363 37.2273C27.1363 39.7981 25.3133 41.9404 22.8906 42.4364C28.253 41.8936 32.4545 37.4168 32.4545 31.9091C32.4545 26.0352 27.6921 21.2727 21.8181 21.2727Z" fill="#800020"/>
<path d="M56.6758 38.7536V38.0124H58.1583C60.3326 38.0124 61.1233 36.9252 61.1233 35.0474V9.44975L60.8762 9.10383C59.8879 7.72018 59.1466 6.83068 57.0711 6.83068H56.1816V6.08944H65.9661L83.8054 29.8093V9.79566C83.8054 7.91784 83.0147 6.83068 80.8404 6.83068H79.3579V6.08944H88.9941V6.83068H87.4622C85.2879 6.83068 84.5466 7.91784 84.5466 9.79566V38.9513H83.2124L61.8645 10.4381V35.0474C61.8645 36.9252 62.6058 38.0124 64.7801 38.0124H66.312V38.7536H56.6758ZM93.9357 32.3295V17.2575H90.6742V16.5163H99.4703V33.5155C99.4703 36.6781 100.261 37.9136 102.534 37.9136C107.229 37.9136 109.008 32.4778 109.008 29.8093V17.2575H105.746V16.5163H114.542V38.0124H117.804V38.7536H109.107V33.5155H109.008C108.415 34.998 106.636 39.0995 100.903 39.0995C96.1595 39.0995 93.9357 36.9746 93.9357 32.3295ZM119.978 38.7536V38.0124H121.461C123.635 38.0124 124.426 36.9252 124.426 35.0474V6.83068H120.176V6.08944H130.899L140.288 30.847L149.084 6.08944H159.511V6.83068H155.212V38.0124H159.511V38.7536H144.785V38.0124H149.183V8.06609L138.262 38.7536H136.928L125.167 8.01667V35.0474C125.167 36.9252 125.908 38.0124 128.082 38.0124H129.614V38.7536H119.978ZM174.04 39.0995C166.578 39.0995 162.921 34.7015 162.921 27.7832C162.921 20.6673 166.38 16.1704 174.04 16.1704C181.798 16.1704 185.158 20.4696 185.158 27.4867C185.158 34.9486 180.958 39.0995 174.04 39.0995ZM174.04 38.4571C178.141 38.4571 179.327 35.3439 179.327 27.4867C179.327 19.7778 178.141 16.8128 174.04 16.8128C170.086 16.8128 168.752 19.8766 168.752 27.7832C168.752 35.4427 170.037 38.4571 174.04 38.4571ZM205.37 38.7536V34.0097H205.271C204.233 36.9746 202.059 39.0995 198.056 39.0995C191.829 39.0995 188.963 34.8497 188.963 27.9809C188.963 20.519 192.719 16.1704 198.797 16.1704C202.355 16.1704 204.282 17.9988 205.172 19.926H205.271V4.01395H201.96V3.27271H210.805V38.0124H214.116V38.7536H205.37ZM205.271 30.1058V23.8299C205.271 20.5684 203.492 17.2081 199.835 17.2081C196.228 17.2081 194.745 20.519 194.745 28.0797C194.745 35.3933 196.129 38.0618 199.39 38.0618C202.849 38.0618 205.271 34.3062 205.271 30.1058ZM222.468 27.042V27.7832C222.468 36.5299 224.543 38.3089 228.15 38.3089C231.807 38.3089 235.217 35.9863 235.217 32.2801H235.958C235.909 35.2451 234.179 37.2711 231.659 38.3583C230.374 38.9019 229.139 39.0995 227.607 39.0995C221.133 39.0995 216.636 35.9863 216.636 27.635C216.636 19.4813 220.936 16.1704 227.212 16.1704C233.043 16.1704 236.452 19.0859 236.452 25.0653V27.042H222.468ZM222.517 26.3007H230.967V23.9782C230.967 19.333 230.078 16.8128 227.113 16.8128C223.901 16.8128 222.665 19.4318 222.517 26.3007Z" fill="#800020"/>
</svg>
