<svg width="249" height="72" viewBox="0 0 249 72" fill="none" xmlns="http://www.w3.org/2000/svg">
<path d="M49.0909 28.2727C49.0909 40.0205 39.5659 49.5455 27.8181 49.5455C36.629 49.5455 43.7727 42.4017 43.7727 33.5909C43.7727 24.7801 36.629 17.6364 27.8181 17.6364C19.0073 17.6364 11.8636 24.7801 11.8636 33.5909C11.8636 42.4017 19.0073 49.5455 27.8181 49.5455C16.0704 49.5455 6.54541 40.0205 6.54541 28.2727C6.54541 16.5249 16.0704 7 27.8181 7C39.5659 7 49.0909 16.5249 49.0909 28.2727ZM27.8181 28.2727C21.9442 28.2727 17.1818 33.0352 17.1818 38.9091C17.1818 44.4168 21.3834 48.8936 26.7457 49.4364C24.3229 48.9404 22.5 46.7981 22.5 44.2273C22.5 41.2903 24.8812 38.9091 27.8181 38.9091C30.7551 38.9091 33.1363 41.2903 33.1363 44.2273C33.1363 46.7981 31.3133 48.9404 28.8906 49.4364C34.253 48.8936 38.4545 44.4168 38.4545 38.9091C38.4545 33.0352 33.6921 28.2727 27.8181 28.2727Z" fill="white"/>
<path d="M62.6758 45.7536V45.0124H64.1583C66.3326 45.0124 67.1233 43.9252 67.1233 42.0474V16.4497L66.8762 16.1038C65.8879 14.7202 65.1466 13.8307 63.0711 13.8307H62.1816V13.0894H71.9661L89.8054 36.8093V16.7957C89.8054 14.9178 89.0147 13.8307 86.8404 13.8307H85.3579V13.0894H94.9941V13.8307H93.4622C91.2879 13.8307 90.5466 14.9178 90.5466 16.7957V45.9513H89.2124L67.8645 17.4381V42.0474C67.8645 43.9252 68.6058 45.0124 70.7801 45.0124H72.312V45.7536H62.6758ZM99.9357 39.3295V24.2575H96.6742V23.5163H105.47V40.5155C105.47 43.6781 106.261 44.9136 108.534 44.9136C113.229 44.9136 115.008 39.4778 115.008 36.8093V24.2575H111.746V23.5163H120.542V45.0124H123.804V45.7536H115.107V40.5155H115.008C114.415 41.998 112.636 46.0995 106.903 46.0995C102.159 46.0995 99.9357 43.9746 99.9357 39.3295ZM125.978 45.7536V45.0124H127.461C129.635 45.0124 130.426 43.9252 130.426 42.0474V13.8307H126.176V13.0894H136.899L146.288 37.847L155.084 13.0894H165.511V13.8307H161.212V45.0124H165.511V45.7536H150.785V45.0124H155.183V15.0661L144.262 45.7536H142.928L131.167 15.0167V42.0474C131.167 43.9252 131.908 45.0124 134.082 45.0124H135.614V45.7536H125.978ZM180.04 46.0995C172.578 46.0995 168.921 41.7015 168.921 34.7832C168.921 27.6673 172.38 23.1704 180.04 23.1704C187.798 23.1704 191.158 27.4696 191.158 34.4867C191.158 41.9486 186.958 46.0995 180.04 46.0995ZM180.04 45.4571C184.141 45.4571 185.327 42.3439 185.327 34.4867C185.327 26.7778 184.141 23.8128 180.04 23.8128C176.086 23.8128 174.752 26.8766 174.752 34.7832C174.752 42.4427 176.037 45.4571 180.04 45.4571ZM211.37 45.7536V41.0097H211.271C210.233 43.9746 208.059 46.0995 204.056 46.0995C197.829 46.0995 194.963 41.8497 194.963 34.9809C194.963 27.519 198.719 23.1704 204.797 23.1704C208.355 23.1704 210.282 24.9988 211.172 26.926H211.271V11.014H207.96V10.2727H216.805V45.0124H220.116V45.7536H211.37ZM211.271 37.1058V30.8299C211.271 27.5684 209.492 24.2081 205.835 24.2081C202.228 24.2081 200.745 27.519 200.745 35.0797C200.745 42.3933 202.129 45.0618 205.39 45.0618C208.849 45.0618 211.271 41.3062 211.271 37.1058ZM228.468 34.042V34.7832C228.468 43.5299 230.543 45.3089 234.15 45.3089C237.807 45.3089 241.217 42.9863 241.217 39.2801H241.958C241.909 42.2451 240.179 44.2711 237.659 45.3583C236.374 45.9019 235.139 46.0995 233.607 46.0995C227.133 46.0995 222.636 42.9863 222.636 34.635C222.636 26.4813 226.936 23.1704 233.212 23.1704C239.043 23.1704 242.452 26.0859 242.452 32.0653V34.042H228.468ZM228.517 33.3007H236.967V30.9782C236.967 26.333 236.078 23.8128 233.113 23.8128C229.901 23.8128 228.665 26.4318 228.517 33.3007Z" fill="white"/>
</svg>
