<svg width="52" height="52" viewBox="0 0 52 52" fill="none" xmlns="http://www.w3.org/2000/svg">
<g clip-path="url(#clip0_86_1475)">
<path d="M23.8332 39C23.2193 39 22.7051 38.792 22.2906 38.376C21.876 37.96 21.668 37.4458 21.6666 36.8333C21.6651 36.2209 21.8731 35.7067 22.2906 35.2907C22.708 34.8747 23.2222 34.6667 23.8332 34.6667H32.4999C33.1138 34.6667 33.6287 34.8747 34.0447 35.2907C34.4607 35.7067 34.668 36.2209 34.6666 36.8333C34.6651 37.4458 34.4571 37.9607 34.0426 38.3782C33.628 38.7956 33.1138 39.0029 32.4999 39H23.8332ZM13.1082 32.825L31.4642 14.4625C31.8976 14.0292 32.4038 13.8125 32.9831 13.8125C33.5623 13.8125 34.0693 14.0292 34.5041 14.4625C34.9388 14.8958 35.1555 15.4108 35.1541 16.0073C35.1526 16.6039 34.936 17.1181 34.5041 17.55L14.6314 37.4833C14.1981 37.9167 13.6918 38.1333 13.1126 38.1333C12.5333 38.1333 12.0263 37.9167 11.5916 37.4833L2.2749 28.1797C1.84157 27.7449 1.63357 27.2285 1.6509 26.6305C1.66968 26.0311 1.89574 25.5139 2.32907 25.0792C2.7624 24.6458 3.27735 24.4292 3.8739 24.4292C4.47046 24.4292 4.98468 24.6458 5.41657 25.0792L13.1082 32.825ZM32.4999 30.3333C31.886 30.3333 31.3718 30.1253 30.9572 29.7093C30.5427 29.2933 30.3347 28.7791 30.3332 28.1667C30.3318 27.5542 30.5398 27.04 30.9572 26.624C31.3747 26.208 31.8889 26 32.4999 26H41.1666C41.7805 26 42.2954 26.208 42.7114 26.624C43.1274 27.04 43.3347 27.5542 43.3332 28.1667C43.3318 28.7791 43.1238 29.2941 42.7092 29.7115C42.2947 30.1289 41.7805 30.3362 41.1666 30.3333H32.4999ZM41.1666 21.6667C40.5527 21.6667 40.0385 21.4587 39.6239 21.0427C39.2094 20.6267 39.0014 20.1124 38.9999 19.5C38.9985 18.8876 39.2065 18.3733 39.6239 17.9573C40.0414 17.5413 40.5556 17.3333 41.1666 17.3333H49.8332C50.4471 17.3333 50.9621 17.5413 51.3781 17.9573C51.7941 18.3733 52.0014 18.8876 51.9999 19.5C51.9985 20.1124 51.7905 20.6274 51.3759 21.0448C50.9613 21.4623 50.4471 21.6696 49.8332 21.6667H41.1666Z" fill="#800020" fill-opacity="0.7"/>
</g>
<defs>
<clipPath id="clip0_86_1475">
<rect width="52" height="52" fill="white"/>
</clipPath>
</defs>
</svg>
