<svg width="52" height="52" viewBox="0 0 52 52" fill="none" xmlns="http://www.w3.org/2000/svg">
<path d="M28.1667 43.3334V45.5C28.1667 46.1139 27.9587 46.6289 27.5427 47.0449C27.1267 47.4609 26.6125 47.6682 26 47.6667C25.3876 47.6653 24.8733 47.4573 24.4573 47.0427C24.0413 46.6282 23.8333 46.1139 23.8333 45.5V36.8334C23.8333 36.2195 24.0413 35.7053 24.4573 35.2907C24.8733 34.8762 25.3876 34.6682 26 34.6667C26.6125 34.6653 27.1274 34.8733 27.5448 35.2907C27.9623 35.7082 28.1696 36.2224 28.1667 36.8334V39H43.3333C43.9472 39 44.4622 39.208 44.8782 39.624C45.2942 40.04 45.5014 40.5543 45.5 41.1667C45.4986 41.7792 45.2906 42.2941 44.876 42.7115C44.4614 43.129 43.9472 43.3363 43.3333 43.3334H28.1667ZM8.66667 43.3334C8.05279 43.3334 7.53856 43.1254 7.12401 42.7094C6.70945 42.2934 6.50145 41.7792 6.50001 41.1667C6.49856 40.5543 6.70656 40.04 7.12401 39.624C7.54145 39.208 8.05567 39 8.66667 39H17.3333C17.9472 39 18.4622 39.208 18.8782 39.624C19.2942 40.04 19.5015 40.5543 19.5 41.1667C19.4986 41.7792 19.2906 42.2941 18.876 42.7115C18.4615 43.129 17.9472 43.3363 17.3333 43.3334H8.66667ZM20.8 23.6709H31.2542L33.0958 28.9792C33.2403 29.3764 33.4931 29.7014 33.8542 29.9542C34.2153 30.207 34.6125 30.3334 35.0458 30.3334C35.7681 30.3334 36.3458 30.0264 36.7792 29.4125C37.2125 28.7987 37.2847 28.1487 36.9958 27.4625L28.8708 5.74171C28.6903 5.30837 28.4195 4.96532 28.0583 4.71254C27.6972 4.45976 27.282 4.33337 26.8125 4.33337H25.1875C24.7181 4.33337 24.3028 4.45976 23.9417 4.71254C23.5806 4.96532 23.3097 5.30837 23.1292 5.74171L14.95 27.5167C14.6972 28.2028 14.7788 28.8442 15.1948 29.4407C15.6108 30.0373 16.1792 30.3348 16.9 30.3334C17.3695 30.3334 17.7761 30.207 18.1198 29.9542C18.4636 29.7014 18.7251 29.3584 18.9042 28.925L20.8 23.6709ZM22.1 19.9334L25.8917 9.15421H26.1083L29.9 19.9334H22.1Z" fill="#800020" fill-opacity="0.7"/>
</svg>
