<svg width="52" height="52" viewBox="0 0 52 52" fill="none" xmlns="http://www.w3.org/2000/svg">
<path d="M8.66675 39V15.3834L5.30841 8.12504C5.05564 7.58338 5.03758 7.03232 5.25425 6.47188C5.47091 5.91143 5.85008 5.50554 6.39175 5.25421C6.93341 5.00288 7.48447 4.97616 8.04491 5.17404C8.60536 5.37193 9.01125 5.74171 9.26258 6.28338L13.4334 15.275H38.5667L42.7376 6.28338C42.9904 5.74171 43.397 5.36254 43.9574 5.14588C44.5179 4.92921 45.0682 4.96532 45.6084 5.25421C46.1501 5.50699 46.5293 5.9136 46.7459 6.47404C46.9626 7.03449 46.9445 7.58482 46.6917 8.12504L43.3334 15.3834V39C43.3334 40.1917 42.9095 41.2122 42.0616 42.0615C41.2137 42.9109 40.1932 43.3348 39.0001 43.3334H13.0001C11.8084 43.3334 10.7886 42.9094 9.94075 42.0615C9.09286 41.2137 8.66819 40.1932 8.66675 39ZM21.6667 28.1667H30.3334C30.9473 28.1667 31.4622 27.9587 31.8783 27.5427C32.2943 27.1267 32.5015 26.6125 32.5001 26C32.4986 25.3876 32.2906 24.8734 31.8761 24.4574C31.4615 24.0414 30.9473 23.8334 30.3334 23.8334H21.6667C21.0529 23.8334 20.5386 24.0414 20.1241 24.4574C19.7095 24.8734 19.5015 25.3876 19.5001 26C19.4986 26.6125 19.7066 27.1274 20.1241 27.5449C20.5415 27.9623 21.0557 28.1696 21.6667 28.1667ZM13.0001 39H39.0001V19.6084H13.0001V39Z" fill="#800020" fill-opacity="0.7"/>
</svg>
