<svg width="52" height="52" viewBox="0 0 52 52" fill="none" xmlns="http://www.w3.org/2000/svg">
<path d="M15.1667 43.3333C13.3612 43.3333 11.8264 42.7014 10.5626 41.4375C9.29866 40.1736 8.66672 38.6388 8.66672 36.8333H5.90422C5.29033 36.8333 4.77539 36.6253 4.35939 36.2093C3.94339 35.7933 3.73611 35.2791 3.73755 34.6666C3.739 34.0542 3.947 33.54 4.36155 33.124C4.77611 32.708 5.29033 32.5 5.90422 32.5H10.3459C10.9598 31.8138 11.682 31.2816 12.5126 30.9031C13.3431 30.5247 14.2278 30.3347 15.1667 30.3333C16.1056 30.3318 16.9903 30.5218 17.8209 30.9031C18.6514 31.2845 19.3737 31.8167 19.9876 32.5H29.0334L33.5834 13H16.7917C16.1778 13 15.6636 12.792 15.2491 12.376C14.8345 11.96 14.6265 11.4457 14.6251 10.8333C14.6236 10.2208 14.8316 9.70663 15.2491 9.29063C15.6665 8.87463 16.1807 8.66663 16.7917 8.66663H36.2917C37.0139 8.66663 37.5917 8.93746 38.025 9.47913C38.4584 10.0208 38.5848 10.6347 38.4042 11.3208L36.9959 17.3333H41.1667C41.8528 17.3333 42.5028 17.4871 43.1167 17.7948C43.7306 18.1025 44.2362 18.5264 44.6334 19.0666L48.6959 24.4291C49.0931 24.9347 49.3459 25.4857 49.4542 26.0823C49.5625 26.6788 49.5625 27.2833 49.4542 27.8958L47.9917 35.1C47.8834 35.6055 47.6306 36.0208 47.2334 36.3458C46.8362 36.6708 46.3848 36.8333 45.8792 36.8333H43.3334C43.3334 38.6388 42.7014 40.1736 41.4375 41.4375C40.1737 42.7014 38.6389 43.3333 36.8334 43.3333C35.0278 43.3333 33.4931 42.7014 32.2292 41.4375C30.9653 40.1736 30.3334 38.6388 30.3334 36.8333H21.6667C21.6667 38.6388 21.0348 40.1736 19.7709 41.4375C18.507 42.7014 16.9723 43.3333 15.1667 43.3333ZM34.5042 28.1666H44.9584L45.175 27.0291L41.1667 21.6666H36.0209L34.5042 28.1666ZM33.5834 13L29.0334 32.5L29.1417 32.1208L33.5834 13ZM7.58339 21.6666H4.22505C3.79172 21.6666 3.47611 21.4774 3.27822 21.099C3.08033 20.7205 3.10705 20.35 3.35839 19.9875L8.77505 12.2416C8.95561 12.025 9.16361 11.9527 9.39905 12.025C9.6345 12.0972 9.7515 12.2777 9.75005 12.5666V17.3333H13.1084C13.5417 17.3333 13.8573 17.5232 14.0552 17.9031C14.2531 18.283 14.2264 18.6528 13.9751 19.0125L8.55839 26.7583C8.37783 26.975 8.16983 27.0472 7.93439 26.975C7.69894 26.9027 7.58194 26.7222 7.58339 26.4333V21.6666ZM15.1667 39C15.7806 39 16.2956 38.792 16.7116 38.376C17.1276 37.96 17.3348 37.4457 17.3334 36.8333C17.3319 36.2208 17.1239 35.7066 16.7094 35.2906C16.2948 34.8746 15.7806 34.6666 15.1667 34.6666C14.5528 34.6666 14.0386 34.8746 13.6241 35.2906C13.2095 35.7066 13.0015 36.2208 13.0001 36.8333C12.9986 37.4457 13.2066 37.9607 13.6241 38.3781C14.0415 38.7956 14.5557 39.0028 15.1667 39ZM36.8334 39C37.4473 39 37.9622 38.792 38.3782 38.376C38.7942 37.96 39.0015 37.4457 39 36.8333C38.9986 36.2208 38.7906 35.7066 38.376 35.2906C37.9615 34.8746 37.4473 34.6666 36.8334 34.6666C36.2195 34.6666 35.7053 34.8746 35.2907 35.2906C34.8762 35.7066 34.6682 36.2208 34.6667 36.8333C34.6653 37.4457 34.8733 37.9607 35.2907 38.3781C35.7082 38.7956 36.2224 39.0028 36.8334 39Z" fill="#800020" fill-opacity="0.7"/>
</svg>
